<?xml version="1.0" standalone="no"?>
<!DOCTYPE svg PUBLIC "-//W3C//DTD SVG 20010904//EN"
 "http://www.w3.org/TR/2001/REC-SVG-20010904/DTD/svg10.dtd">
<svg version="1.0" xmlns="http://www.w3.org/2000/svg"
 width="75.000000pt" height="126.000000pt" viewBox="0 0 75.000000 126.000000"
 preserveAspectRatio="xMidYMid meet">

<g transform="translate(0.000000,126.000000) scale(0.100000,-0.100000)"
fill="#000000" stroke="none">
<path d="M20 630 l0 -620 355 0 355 0 0 150 0 150 -175 0 -175 0 0 -35 0 -35
145 0 145 0 0 -85 0 -85 -295 0 -295 0 0 560 0 560 30 0 30 0 0 -530 0 -530
30 0 30 0 0 560 0 560 -90 0 -90 0 0 -620z"/>
<path d="M260 690 l0 -560 175 0 175 0 0 30 0 30 -145 0 -145 0 0 530 0 530
-30 0 -30 0 0 -560z"/>
</g>
</svg>
