<?xml version="1.0" standalone="no"?>
<!DOCTYPE svg PUBLIC "-//W3C//DTD SVG 20010904//EN"
 "http://www.w3.org/TR/2001/REC-SVG-20010904/DTD/svg10.dtd">
<svg version="1.0" xmlns="http://www.w3.org/2000/svg"
 width="498.000000pt" height="126.000000pt" viewBox="0 0 498.000000 126.000000"
 preserveAspectRatio="xMidYMid meet">

<g transform="translate(0.000000,126.000000) scale(0.100000,-0.100000)"
fill="#000000" stroke="none">
<path d="M20 630 l0 -620 355 0 355 0 0 150 0 150 -175 0 -175 0 0 -35 0 -35
145 0 145 0 0 -85 0 -85 -295 0 -295 0 0 560 0 560 30 0 30 0 0 -530 0 -530
30 0 30 0 0 560 0 560 -90 0 -90 0 0 -620z"/>
<path d="M260 690 l0 -560 175 0 175 0 0 30 0 30 -145 0 -145 0 0 530 0 530
-30 0 -30 0 0 -560z"/>
<path d="M1300 970 c-24 -24 -25 -48 -4 -78 31 -44 104 -16 104 40 0 24 -35
58 -60 58 -11 0 -29 -9 -40 -20z"/>
<path d="M1529 967 c-36 -24 -57 -70 -58 -124 -1 -31 -3 -33 -36 -33 -34 0
-35 -1 -35 -40 0 -39 1 -40 35 -40 l35 0 0 -145 0 -145 55 0 55 0 0 145 0 145
40 0 40 0 0 40 0 40 -40 0 c-40 0 -40 0 -40 38 0 45 14 62 52 62 26 0 28 3 28
40 l0 40 -49 0 c-33 0 -58 -7 -82 -23z"/>
<path d="M2940 900 l0 -90 -54 0 -53 0 -43 -112 c-24 -62 -46 -116 -49 -120
-4 -5 -26 46 -50 112 l-43 120 -84 0 -84 0 0 60 0 60 -45 0 -45 0 0 -40 c0
-47 -27 -80 -65 -80 -18 0 -25 -5 -25 -20 0 -19 -1 -20 -25 -4 -62 40 -175 36
-222 -8 -31 -29 -39 -78 -19 -116 19 -36 37 -48 109 -69 80 -23 110 -60 68
-83 -33 -17 -61 -11 -90 18 -25 24 -31 26 -64 18 -42 -11 -47 -30 -18 -68 35
-44 148 -62 214 -34 50 21 72 52 72 102 0 58 -33 90 -121 119 -78 25 -100 48
-70 71 28 20 53 17 80 -9 18 -18 32 -23 55 -19 17 2 34 8 37 13 3 5 21 9 40 9
l34 0 0 -116 c0 -114 0 -116 29 -145 26 -26 36 -29 90 -29 l61 0 0 35 c0 27
-4 35 -18 35 -10 0 -28 7 -40 16 -20 14 -22 23 -22 109 l0 93 44 3 44 4 61
-143 60 -143 -39 -86 c-22 -47 -40 -90 -40 -94 0 -5 22 -9 49 -9 l49 0 60 143
c33 78 84 200 114 270 l53 128 3 -180 2 -181 55 0 55 0 0 275 0 275 -55 0 -55
0 0 -90z"/>
<path d="M4050 715 l0 -275 50 0 50 0 0 275 0 275 -50 0 -50 0 0 -275z"/>
<path d="M1000 700 l0 -260 135 0 135 0 0 45 0 45 -80 0 -80 0 0 215 0 215
-55 0 -55 0 0 -260z"/>
<path d="M3640 699 l0 -260 150 3 150 3 31 31 c66 66 55 193 -21 224 l-30 13
24 22 c47 43 43 136 -7 183 -36 34 -72 42 -188 42 l-109 0 0 -261z m224 149
c37 -53 3 -98 -74 -98 l-50 0 0 60 0 60 54 0 c45 0 58 -4 70 -22z m24 -204
c28 -19 29 -67 2 -94 -16 -16 -33 -20 -85 -20 l-65 0 0 65 0 65 63 0 c40 0 70
-5 85 -16z"/>
<path d="M1773 811 c-46 -12 -97 -53 -117 -94 -18 -40 -21 -132 -5 -174 14
-38 57 -83 96 -99 41 -18 124 -18 166 0 31 12 97 78 97 95 0 14 -94 25 -98 12
-6 -17 -57 -41 -87 -41 -29 0 -85 49 -85 74 0 14 19 16 134 16 74 0 137 4 140
9 10 16 -13 112 -35 142 -11 16 -33 36 -48 44 -36 18 -117 26 -158 16z m120
-92 c34 -42 24 -49 -68 -49 -47 0 -85 3 -85 8 0 15 33 54 54 62 31 14 78 3 99
-21z"/>
<path d="M3211 810 c-121 -30 -174 -177 -107 -295 32 -59 94 -87 177 -83 54 3
73 9 103 31 20 16 43 41 51 56 l14 29 -45 7 c-39 5 -49 3 -75 -19 -40 -34 -87
-34 -123 -1 -14 13 -26 33 -26 45 0 19 6 20 135 20 l135 0 0 42 c0 55 -34 122
-73 147 -38 23 -118 33 -166 21z m98 -75 c26 -13 41 -33 41 -56 0 -5 -38 -9
-85 -9 -47 0 -85 3 -85 8 0 16 33 54 54 62 31 13 44 12 75 -5z"/>
<path d="M4345 816 c-5 -3 -22 -7 -37 -10 -37 -8 -98 -63 -114 -103 -8 -18
-14 -54 -14 -80 1 -109 71 -183 180 -191 99 -7 175 33 210 111 l17 38 12 -29
c37 -88 140 -126 226 -82 22 11 41 20 43 20 7 0 -9 -84 -20 -106 -13 -26 -49
-44 -89 -44 -22 0 -41 10 -65 34 l-34 34 -40 -15 c-22 -9 -40 -20 -40 -24 0
-4 12 -22 27 -40 97 -115 314 -80 352 56 6 23 11 124 11 233 l0 192 -50 0
c-43 0 -50 -3 -50 -20 0 -24 -13 -26 -30 -5 -22 26 -81 38 -127 26 -54 -15
-92 -46 -114 -95 -15 -35 -19 -38 -25 -21 -14 39 -46 76 -83 95 -36 18 -125
34 -146 26z m108 -117 c22 -24 27 -39 27 -79 0 -64 -28 -99 -86 -107 -35 -4
-46 -1 -74 24 -25 22 -33 39 -36 73 -6 56 11 90 56 112 43 22 77 15 113 -23z
m394 8 c21 -21 31 -69 21 -104 -11 -41 -46 -65 -95 -65 -49 0 -93 46 -93 96 0
40 39 93 73 98 29 5 77 -8 94 -25z"/>
<path d="M1290 625 l0 -185 50 0 50 0 0 185 0 185 -50 0 -50 0 0 -185z"/>
</g>
</svg>
